<?xml version="1.0" encoding="utf-8"?>
<!-- Generator: Adobe Illustrator 25.2.3, SVG Export Plug-In . SVG Version: 6.00 Build 0)  -->
<svg version="1.1" id="Layer_1" xmlns="http://www.w3.org/2000/svg" xmlns:xlink="http://www.w3.org/1999/xlink" x="0px" y="0px"
	 viewBox="0 0 300 300" style="enable-background:new 0 0 300 300;" xml:space="preserve">
<g>
	<path d="M274.7,152.5H25.3c-2.9,0-5.3-2.4-5.3-5.3v-6.9c0-2.9,2.4-5.3,5.3-5.3h249.4c2.9,0,5.3,2.4,5.3,5.3v6.9
		C280,150.2,277.6,152.5,274.7,152.5z"/>
	<path d="M166,178.8H24c-2.2,0-4-1.8-4-4v-9.5c0-2.2,1.8-4,4-4h142c2.2,0,4,1.8,4,4v9.5C170,177,168.2,178.8,166,178.8z"/>
</g>
<g>
	<path d="M274.7,210.1H25.3c-2.9,0-5.3-2.4-5.3-5.3v-6.9c0-2.9,2.4-5.3,5.3-5.3h249.4c2.9,0,5.3,2.4,5.3,5.3v6.9
		C280,207.7,277.6,210.1,274.7,210.1z"/>
	<path d="M166,236.3H24c-2.2,0-4-1.8-4-4v-9.5c0-2.2,1.8-4,4-4h142c2.2,0,4,1.8,4,4v9.5C170,234.5,168.2,236.3,166,236.3z"/>
</g>
<g>
	<path d="M274.7,95H25.3c-2.9,0-5.3-2.4-5.3-5.3v-6.9c0-2.9,2.4-5.3,5.3-5.3h249.4c2.9,0,5.3,2.4,5.3,5.3v6.9
		C280,92.7,277.6,95,274.7,95z"/>
	<path d="M166,121.3H24c-2.2,0-4-1.8-4-4v-9.5c0-2.2,1.8-4,4-4h142c2.2,0,4,1.8,4,4v9.5C170,119.5,168.2,121.3,166,121.3z"/>
</g>
<g>
	<path d="M274.7,37.5H25.3c-2.9,0-5.3-2.4-5.3-5.3v-6.9c0-2.9,2.4-5.3,5.3-5.3h249.4c2.9,0,5.3,2.4,5.3,5.3v6.9
		C280,35.1,277.6,37.5,274.7,37.5z"/>
	<path d="M166,63.8H24c-2.2,0-4-1.8-4-4v-9.5c0-2.2,1.8-4,4-4h142c2.2,0,4,1.8,4,4v9.5C170,62,168.2,63.8,166,63.8z"/>
</g>
<circle cx="107.5" cy="269.5" r="11.5"/>
<circle cx="137.5" cy="269.5" r="11.5"/>
<circle cx="167.5" cy="269.5" r="11.5"/>
<circle cx="197.5" cy="269.5" r="11.5"/>
</svg>
