<svg xmlns="http://www.w3.org/2000/svg" width="259.99997" height="261" viewBox="0 0 259.99997 261"><path d="M274.7,152.5H25.3a5.33509,5.33509,0,0,1-5.3-5.3v-6.9a5.33511,5.33511,0,0,1,5.3-5.3H274.7a5.33509,5.33509,0,0,1,5.3,5.3v6.9A5.27076,5.27076,0,0,1,274.7,152.5Z" transform="translate(-20 -20)"/><path d="M166,178.8H24a4.01176,4.01176,0,0,1-4-4v-9.5a4.01177,4.01177,0,0,1,4-4H166a4.01177,4.01177,0,0,1,4,4v9.5A4.01176,4.01176,0,0,1,166,178.8Z" transform="translate(-20 -20)"/><path d="M274.7,210.1H25.3a5.3351,5.3351,0,0,1-5.3-5.3v-6.9a5.33511,5.33511,0,0,1,5.3-5.3H274.7a5.33509,5.33509,0,0,1,5.3,5.3v6.9A5.33505,5.33505,0,0,1,274.7,210.1Z" transform="translate(-20 -20)"/><path d="M166,236.3H24a4.01176,4.01176,0,0,1-4-4v-9.5a4.01177,4.01177,0,0,1,4-4H166a4.01177,4.01177,0,0,1,4,4v9.5A4.01176,4.01176,0,0,1,166,236.3Z" transform="translate(-20 -20)"/><path d="M274.7,95H25.3A5.3351,5.3351,0,0,1,20,89.7V82.8a5.3351,5.3351,0,0,1,5.3-5.3H274.7a5.33509,5.33509,0,0,1,5.3,5.3v6.9A5.27076,5.27076,0,0,1,274.7,95Z" transform="translate(-20 -20)"/><path d="M166,121.3H24a4.01176,4.01176,0,0,1-4-4v-9.5a4.01177,4.01177,0,0,1,4-4H166a4.01177,4.01177,0,0,1,4,4v9.5A4.01176,4.01176,0,0,1,166,121.3Z" transform="translate(-20 -20)"/><path d="M274.7,37.5H25.3A5.3351,5.3351,0,0,1,20,32.2V25.3A5.3351,5.3351,0,0,1,25.3,20H274.7a5.33509,5.33509,0,0,1,5.3,5.3v6.9A5.335,5.335,0,0,1,274.7,37.5Z" transform="translate(-20 -20)"/><path d="M166,63.8H24a4.01176,4.01176,0,0,1-4-4V50.3a4.01176,4.01176,0,0,1,4-4H166a4.01176,4.01176,0,0,1,4,4v9.5A4.01176,4.01176,0,0,1,166,63.8Z" transform="translate(-20 -20)"/><circle cx="87.5" cy="249.5" r="11.5"/><circle cx="117.5" cy="249.5" r="11.5"/><circle cx="147.5" cy="249.5" r="11.5"/><circle cx="177.5" cy="249.5" r="11.5"/></svg>